<svg viewBox="0 0 1200 460" xmlns="http://www.w3.org/2000/svg" role="img">
<title>Skill levels across four security domains</title>
<desc>Horizontal bar chart showing proficiency in network security, web application security, machine learning for security, and tools and devops</desc>
<rect width="1200" height="460" fill="#06141a"/>

<text x="40" y="45" font-family="monospace" font-size="20" font-weight="700" fill="#00ffe5">Network security</text>
<rect x="40" y="58" width="1120" height="18" rx="4" fill="#0d2b2e"/>
<rect x="40" y="58" width="952" height="18" rx="4" fill="#00ffe5"/>
<text x="1010" y="72" font-family="monospace" font-size="14" fill="#06141a" font-weight="700">85%</text>

<text x="40" y="115" font-family="monospace" font-size="20" font-weight="700" fill="#ff8c00">Web application security</text>
<rect x="40" y="128" width="1120" height="18" rx="4" fill="#2b1f0d"/>
<rect x="40" y="128" width="896" height="18" rx="4" fill="#ff8c00"/>
<text x="954" y="142" font-family="monospace" font-size="14" fill="#06141a" font-weight="700">80%</text>

<text x="40" y="185" font-family="monospace" font-size="20" font-weight="700" fill="#ff3e6c">Machine learning for security</text>
<rect x="40" y="198" width="1120" height="18" rx="4" fill="#2b0d16"/>
<rect x="40" y="198" width="840" height="18" rx="4" fill="#ff3e6c"/>
<text x="898" y="212" font-family="monospace" font-size="14" fill="#06141a" font-weight="700">75%</text>

<text x="40" y="255" font-family="monospace" font-size="20" font-weight="700" fill="#00ff88">Tools and DevOps</text>
<rect x="40" y="268" width="1120" height="18" rx="4" fill="#0d2b1a"/>
<rect x="40" y="268" width="896" height="18" rx="4" fill="#00ff88"/>
<text x="954" y="282" font-family="monospace" font-size="14" fill="#06141a" font-weight="700">80%</text>

<rect x="0" y="320" width="1200" height="1" fill="#0d3a3f"/>

<text x="40" y="365" font-family="monospace" font-size="16" fill="#7fe7da">Network security:</text>
<text x="260" y="365" font-family="monospace" font-size="16" fill="#c8d8e8">Scapy · packet analysis · ARP/port scan detection</text>

<text x="40" y="395" font-family="monospace" font-size="16" fill="#ffb366">Web app security:</text>
<text x="260" y="395" font-family="monospace" font-size="16" fill="#c8d8e8">OWASP Top 10 · SQLi/XSS detection · PDF pentest reports</text>

<text x="40" y="425" font-family="monospace" font-size="16" fill="#ff9bb3">ML for security:</text>
<text x="260" y="425" font-family="monospace" font-size="16" fill="#c8d8e8">scikit-learn · feature engineering · 97.2% model accuracy</text>
</svg>
